<?xml version="1.0" encoding="UTF-8"?>
<!DOCTYPE svg PUBLIC "-//W3C//DTD SVG 1.1//EN" "http://www.w3.org/Graphics/SVG/1.1/DTD/svg11.dtd">
<!-- Creator: CorelDRAW 2020 (64 Bit) -->
<svg xmlns="http://www.w3.org/2000/svg" xml:space="preserve" width="304.8mm" height="67.7332mm" version="1.1" style="shape-rendering:geometricPrecision; text-rendering:geometricPrecision; image-rendering:optimizeQuality; fill-rule:evenodd; clip-rule:evenodd"
viewBox="0 0 30479.98 6773.32"
 xmlns:xlink="http://www.w3.org/1999/xlink"
 xmlns:xodm="http://www.corel.com/coreldraw/odm/2003">
 <defs>
  <style type="text/css">
   <![CDATA[
    .fil1 {fill:white;fill-rule:nonzero}
    .fil0 {fill:url(#id0)}
   ]]>
  </style>
  <radialGradient id="id0" gradientUnits="userSpaceOnUse" gradientTransform="matrix(0.890769 1.89846 -3.22823 1.37364 7689 -4332)" cx="1825.32" cy="2320.16" r="11006.66" fx="1825.32" fy="2320.16">
   <stop offset="0" style="stop-opacity:1; stop-color:#1482FF"/>
   <stop offset="1" style="stop-opacity:1; stop-color:#7FBBFF"/>
  </radialGradient>
 </defs>
 <g id="Camada_x0020_1">
  <metadata id="CorelCorpID_0Corel-Layer"/>
  <g id="_2656446849568">
   <path class="fil0" d="M3358.41 6719.46c-1840.65,0 -3332.8,-1492.16 -3332.8,-3332.81 0,-1840.65 1492.15,-3332.8 3332.8,-3332.8 1840.65,0 3332.81,1492.15 3332.81,3332.8 0,1840.65 -1492.16,3332.81 -3332.81,3332.81zm-1201.83 -362.22c372.78,-220.6 1027.58,-652.75 1677.58,-1296.85 -109.41,-146.97 -222.79,-300.94 -337.55,-458.2 -49.9,0.41 -99.81,0.83 -149.72,0.83 -1.64,0 -3.15,0 -4.79,0 -120.52,0 -239.39,-2.88 -356.61,-8.5 -80.2,190.57 -268.58,324.24 -488.35,324.24 -55.94,0 -108.86,-11.1 -159.59,-27.01 -314.51,514.13 -554.85,945.73 -693.19,1202.11 161.79,102.28 333.02,190.85 512.22,263.38zm4132.52 -4267.99c-136.69,235.68 -297.23,504.4 -477.93,793 286.26,79.52 535.38,163.97 740.62,240.89 -29.75,-365.52 -120.65,-713.34 -262.69,-1033.89zm-1125.74 -559.65c14.94,49.36 25.77,100.63 25.77,154.93 0,156.16 -68.82,295.04 -176.17,391.97 49.49,78.97 100.22,157.67 152.87,235.54 112.83,167.68 230.74,332.89 350.02,493.57 5.62,1.37 11.51,2.74 17.13,4.11 239.93,-379.77 445.31,-727.46 608.32,-1012.63 -129.15,-226.09 -285.44,-434.75 -464.22,-622.03 -150.54,96.24 -325.07,214.43 -513.72,354.54zm-611.34 2329.78c85.55,0 165.21,22.21 236.78,58.13 207.57,-288.88 402.39,-577.34 581.45,-853.74 -2.61,-3.29 -4.94,-6.72 -7.54,-10.01 -474.38,-110.09 -1021.96,-195.64 -1607.38,-209.62 -83.5,99.53 -166.04,202.36 -246.38,309.3 -122.98,164.25 -242.53,329.59 -357.56,493.98 154.24,221.69 317.67,450.92 483.15,678.79 132.85,-2.33 264.88,-5.62 395.26,-10.42 36.06,-257.48 254.87,-456.41 522.22,-456.41zm-402.67 869.91c-35.51,-42.23 -65.67,-88.57 -87.19,-140.12 -76.23,2.88 -153.01,5.07 -230.33,7.13 65.67,89.25 131.2,177.96 196.05,265.29 40.86,-43.32 81.3,-87.33 121.47,-132.3zm-1651.94 -869.91c55.53,0 107.9,10.96 158.08,26.73 53.06,-79.25 107.35,-159.04 162.61,-239.38 -42.5,-61.56 -85.14,-123.53 -125.45,-183.44 -118.73,-176.45 -231.43,-373.88 -336.59,-581.86 -945.73,57.3 -1756.96,163.7 -2188.97,227.45 -7.81,91.58 -12.75,183.99 -12.75,277.63 0,94.19 4.94,187.28 12.89,279.41 352.76,148.62 1012.5,393.08 1835.11,540.05 74.58,-201.81 267.21,-346.59 495.07,-346.59zm904.6 -1016.2c-252.95,2.74 -502.89,10.69 -746.11,22.34 83.64,157.67 171.79,307.66 264.06,444.62 21.39,31.81 43.46,64.3 65.67,96.8 98.71,-139.3 200.17,-279.01 304.37,-417.61 36.88,-49.77 74.31,-98.3 112.01,-146.15zm-381.83 1477.82c91.59,4.25 184.41,6.72 277.77,7.27 -106.11,-147.39 -210.58,-294.64 -312.86,-440.51 -33.04,48.53 -65.67,96.93 -98.03,145.19 71.57,78.28 118.87,177.68 133.12,288.05zm-913.37 422.82c-65.67,-72.11 -111.74,-161.92 -129.56,-262.14 -756.53,-131.48 -1375.96,-343.58 -1766.84,-499.87 149.17,793.41 590.09,1483.44 1207.74,1954.25 142.72,-263.1 380.32,-688.39 688.66,-1192.24zm120.51 -2128.64c-307.1,-666.59 -541.27,-1393.65 -675.91,-1874.6 -696.75,476.84 -1194.84,1221.72 -1347.3,2086.01 434.47,-62.66 1170.03,-155.75 2023.21,-211.41zm294.22 -17.55c343.44,-18.1 701.83,-29.48 1064.05,-29.62 1.51,0 3.15,0 4.53,0 13.43,0 26.04,0.42 39.34,0.42 191.4,-220.46 387.45,-421.59 581.59,-604.08 -50.86,-81.3 -81.58,-176.72 -81.58,-279.68 0,-139.44 54.98,-265.16 143,-359.76 -226.63,-443.52 -399.93,-844.68 -503.99,-1115.87 -134.08,-17.14 -270.91,-27.01 -409.79,-27.01 -568.15,0 -1101.34,148.48 -1563.92,407.88 130.24,473.96 383.47,1287.66 726.77,2007.72zm1689.92 2965.92c-65.95,-87.47 -137.38,-182.34 -210.73,-280.23 -557.59,549.91 -1113.4,944.63 -1503.32,1189.91 274.2,76.36 562.94,118.04 861.55,118.04 498.91,0 970.82,-113.93 1391.58,-316.98 -126.95,-165.76 -298.87,-393.21 -539.08,-710.74zm848.8 -1033.47c-61.97,223.75 -264.88,388.54 -508.24,388.54 -61.55,0 -119.96,-12.61 -174.8,-31.94 -60.32,68.28 -121.2,134.63 -182.07,198.93 317.25,423.92 605.17,799.58 802.59,1054.87 657.14,-391.84 1161.81,-1012.23 1405.02,-1751.34 -356.74,46.48 -819.46,99.4 -1342.5,140.94zm-1070.49 -1951.23c399.79,21.25 778.19,72.25 1124.92,139.29 -62.38,-87.06 -121.88,-171.79 -176.18,-252.81 -58.41,-86.52 -114.62,-174.26 -169.73,-262.69 -35.37,7.4 -71.71,11.51 -109.13,11.51 -88.57,0 -170.97,-23.85 -244.32,-62.38 -142.17,132.3 -284.89,274.89 -425.56,427.08zm516.6 -1398.72c48.53,-14.81 99.54,-25.23 153.01,-25.23 137.37,0 261.31,53.75 355.5,139.57 165.35,-122.29 319.17,-227.17 456.69,-316.29 -389.92,-342.34 -863.47,-591.32 -1386.38,-712.52 98.71,239.66 241.16,560.47 421.18,914.47zm2056.11 2243.12c-204.14,-79.24 -465.18,-171.37 -771.47,-258.71 248.98,316.3 493.29,603.8 710.74,849.62 37.98,-191.39 58.68,-389.09 60.73,-590.91zm-323.55 710.47c-224.17,-259.67 -464.37,-550.74 -691.27,-840.03 -171.65,262.55 -356.61,534.15 -552.39,806.57 30.85,46.89 52.92,99.26 67.46,154.79 447.09,-36.06 849.21,-80.34 1176.2,-121.33z"/>
   <path class="fil1" d="M9438.58 5217.33c-121.36,60.21 -232.37,106.3 -332.08,136.41 -100.66,30.1 -190.98,45.15 -271.88,45.15 -84.67,0 -165.57,-15.99 -242.71,-47.97 -77.14,-31.99 -144.87,-79.03 -204.14,-139.23 -52.68,-50.8 -90.31,-113.83 -112.89,-187.21 -21.64,-73.38 -32.92,-200.38 -32.92,-381.94l0 -1614.31 -491.07 0 0 -293.51 491.07 0 0 -645.35 361.24 -438.38 0 1083.73 620.89 0 0 293.51 -620.89 0 0 1738.49c0,98.77 25.4,172.15 76.2,221.07 49.86,47.98 126.06,72.44 226.72,72.44 59.26,0 130.76,-16 215.43,-47.04 84.66,-31.04 190.03,-80.9 317.03,-150.52l0 354.66zm2200.39 -241.77c-113.83,137.35 -248.36,242.71 -403.58,315.15 -155.22,72.44 -322.67,108.18 -503.29,108.18 -324.56,0 -574.8,-123.23 -749.77,-370.65 -174.04,-247.41 -261.53,-600.19 -261.53,-1060.21 0,-429.92 91.25,-768.59 272.81,-1017.88 181.57,-249.3 428.04,-373.48 738.49,-373.48 308.56,0 551.27,116.66 728.13,350.9 175.92,233.3 264.35,556.92 264.35,970.84l0 55.51 -1625.6 0 0 129.82c0,335.84 56.44,584.2 168.39,746.01 111.95,160.86 283.16,241.77 514.58,241.77 98.78,0 198.5,-26.34 299.16,-78.09 99.72,-52.68 197.56,-129.82 292.57,-232.36l265.29 214.49zm-1539.99 -1320.8l1247.42 -2.82c-9.41,-245.53 -65.85,-432.74 -169.33,-560.68 -103.49,-128.88 -252.12,-192.85 -444.97,-192.85 -190.97,0 -338.67,63.97 -444.97,190.97 -105.37,127.94 -168.4,316.09 -188.15,565.38zm4203.22 1186.27c-100.66,190.97 -226.72,331.14 -378.17,421.46 -151.46,91.25 -335.85,136.4 -552.22,136.4 -327.38,0 -582.32,-124.17 -764.82,-372.53 -182.5,-247.41 -273.76,-593.61 -273.76,-1038.58 0,-431.8 93.14,-776.11 279.4,-1031.99 186.27,-256.82 433.69,-384.76 742.25,-384.76 185.32,0 350.89,41.39 497.65,124.18 145.81,83.72 285.04,215.43 416.75,396.05l-354.66 174.03c-71.5,-119.47 -154.28,-210.72 -248.36,-272.81 -93.13,-63.03 -196.61,-94.07 -310.44,-94.07 -198.5,0 -355.6,96.89 -471.31,290.69 -115.71,193.79 -173.1,460.02 -173.1,799.62 0,352.78 60.21,621.83 181.56,806.22 121.36,184.38 297.28,276.58 528.7,276.58 113.83,0 213.55,-31.05 300.1,-93.14 85.6,-62.09 166.51,-160.86 241.77,-296.33l338.66 158.98zm615.25 490.13l0 -3796.83 361.24 -159.92 0 1801.51 49.86 0c158.04,-204.14 313.27,-356.54 466.61,-455.31 153.34,-99.72 308.56,-149.58 464.72,-149.58 214.49,0 378.18,72.44 489.19,218.25 111,144.87 166.51,360.3 166.51,646.29l0 1895.59 -366.89 0 0 -1835.38c0,-222.02 -30.1,-379.12 -89.37,-471.31 -60.21,-91.26 -159.93,-137.35 -301.98,-137.35 -137.35,0 -281.28,54.56 -430.86,163.69 -149.57,109.12 -299.15,269.99 -447.79,480.71l0 1799.64 -361.24 0z"/>
   <path class="fil1" d="M17573.16 1427.09l699.61 0 1579.56 3078.1 0 -3078.1 539.29 0 0 3919.12 -699.61 0 -1580.42 -3037.65 0 3037.65 -538.43 0 0 -3919.12zm3456.21 2094.08c0,-189.08 43.56,-361.24 128.94,-517.4 86.25,-156.17 201.26,-281.28 345.88,-373.48 144.62,-93.13 304.94,-139.23 480.06,-139.23l576.76 0c175.12,0 335.42,46.1 480.05,139.23 144.62,92.2 259.63,217.31 345.88,373.48 85.38,156.16 128.94,328.32 128.94,517.4l0 793.99c0,189.09 -43.56,362.18 -128.94,518.35 -86.25,156.16 -201.26,280.34 -345.88,373.47 -144.63,93.13 -304.93,139.23 -480.05,139.23l-576.76 0c-175.12,0 -335.44,-46.1 -480.06,-139.23 -144.62,-93.13 -259.63,-217.31 -345.88,-373.47 -85.38,-156.17 -128.94,-329.26 -128.94,-518.35l0 -793.99zm538.43 788.34c0,125.12 40.94,232.37 122.84,321.74 81.89,88.43 179.47,133.58 293.61,133.58l576.76 0c115.87,0 214.32,-45.15 294.47,-133.58 81.03,-89.37 121.97,-196.62 121.97,-321.74l0 -782.69c0,-124.18 -40.94,-231.42 -121.97,-320.79 -80.15,-89.37 -178.6,-133.59 -294.47,-133.59l-576.76 0c-114.14,0 -211.72,44.22 -293.61,133.59 -81.9,89.37 -122.84,196.61 -122.84,320.79l0 782.69zm2821.06 -1818.45l706.57 2014.13 702.22 -2014.13 566.31 0 -1008.03 2855.15 -527.97 0 -1006.27 -2855.15 567.17 0zm2280.91 1025.41c0,-190.03 43.56,-361.24 128.94,-515.52 86.25,-154.29 201.25,-278.46 345.88,-370.66 144.62,-93.13 304.93,-139.23 480.05,-139.23l1475.01 0 0 2855.15 -538.43 0 0 -2273.77 -936.58 0c-114.13,0 -211.71,43.28 -293.61,130.76 -81.89,87.49 -122.84,193.8 -122.84,317.97l0 788.34c0,125.12 40.95,232.37 122.84,321.74 81.9,88.43 179.48,133.58 293.61,133.58l630.78 0 0 581.38 -630.78 0c-175.12,0 -335.43,-46.1 -480.05,-139.23 -144.63,-93.13 -259.63,-217.31 -345.88,-373.47 -85.38,-156.17 -128.94,-329.26 -128.94,-518.35l0 -798.69z"/>
   <path class="fil1" d="M29930.46 1118.91c78.53,0 155.15,20.11 230.08,60.54 74.72,40.21 133.14,98 174.84,172.93 41.7,75.14 62.65,153.46 62.65,234.74 0,80.64 -20.53,158.32 -61.81,232.62 -41.06,74.5 -98.63,132.29 -172.93,173.35 -74.29,41.28 -151.97,61.81 -232.83,61.81 -81.07,0 -158.75,-20.53 -233.05,-61.81 -74.29,-41.06 -132.08,-98.85 -173.35,-173.35 -41.28,-74.3 -62.02,-151.98 -62.02,-232.62 0,-81.28 20.96,-159.6 62.87,-234.74 42.12,-74.93 100.54,-132.72 175.26,-172.93 74.93,-40.43 151.55,-60.54 230.29,-60.54zm0 77.47c-65.83,0 -129.96,16.93 -192.19,50.59 -62.23,33.65 -110.92,81.91 -146.05,144.57 -35.14,62.65 -52.71,127.84 -52.71,195.58 0,67.52 17.36,132.08 51.86,193.88 34.5,61.81 82.76,110.07 144.78,144.57 62.02,34.5 126.79,51.86 194.31,51.86 67.31,0 132.08,-17.36 194.1,-51.86 62.02,-34.5 110.28,-82.76 144.57,-144.57 34.29,-61.8 51.43,-126.36 51.43,-193.88 0,-67.74 -17.57,-132.93 -52.49,-195.58 -34.93,-62.66 -83.61,-110.92 -146.05,-144.57 -62.44,-33.66 -126.37,-50.59 -191.56,-50.59zm-205.53 648.97l0 -502.92 173.14 0c59.27,0 102.03,4.66 128.49,13.97 26.67,9.31 47.62,25.4 63.5,48.68 15.66,23.07 23.49,47.63 23.49,73.66 0,36.62 -13.12,68.79 -39.58,95.89 -26.25,27.3 -61.17,42.54 -104.78,45.93 17.78,7.41 32.18,16.3 42.76,26.67 20.32,19.68 45.09,52.92 74.51,99.69l61.38 98.43 -98.64 0 -44.87 -79.16c-35.14,-62.45 -63.71,-101.6 -85.3,-117.27 -14.82,-11.43 -36.41,-17.14 -64.98,-16.93l-47.84 0 0 213.36 -81.28 0zm81.28 -283.21l98.64 0c47.2,0 79.37,-6.99 96.52,-20.96 17.14,-13.97 25.82,-32.59 25.82,-55.45 0,-14.82 -4.23,-28.15 -12.49,-39.8 -8.25,-11.85 -19.68,-20.53 -34.29,-26.24 -14.81,-5.72 -41.91,-8.68 -81.7,-8.68l-92.5 0 0 151.13z"/>
  </g>
 </g>
</svg>
